# xmcd
#
# Track frame offsets:
#       150
#       23753
#       45154
#       67256
#       85179
#       101743
#       122534
#       144184
#       165107
#       182484
#       203176
#       222443
#       241379
#
# Disc length: 3482 seconds
#
# Revision: 0
# Processed by: cddbd v1.4PL0 Copyright (c) Steve Scherf et al.
# Submitted via: WhereIsIt 3.24
#
DISCID=a60d980d
DTITLE=Joe Cocker - Have a Little Faith
DYEAR=1900
DGENRE=
TTITLE0=Let The Healing Begin
TTITLE1=Have A Little Faith In Me
TTITLE2=The Simple Things
TTITLE3=Summer In The City
TTITLE4=The Great Divide
TTITLE5=Highway Highway
TTITLE6=Too Cool
TTITLE7=Soul Time
TTITLE8=Out Of The Blue
TTITLE9=Angeline
TTITLE10=Hell And Highwater
TTITLE11=Standing Knee Deep In A River
TTITLE12=Take Me Home
EXTD=
EXTT0=
EXTT1=
EXTT2=
EXTT3=
EXTT4=
EXTT5=
EXTT6=
EXTT7=
EXTT8=
EXTT9=
EXTT10=
EXTT11=
EXTT12=
PLAYORDER=
